<?xml version="1.0" encoding="UTF-8"?>
<svg id="Layer_2" data-name="Layer 2" xmlns="http://www.w3.org/2000/svg" viewBox="0 0 951.03 122.48">
  <defs>
    <style>
      .cls-1 {
        fill: #0f1d39;
        stroke-width: 0px;
      }
    </style>
  </defs>
  <g id="Layer_1-2" data-name="Layer 1">
    <g>
      <path class="cls-1" d="m17.73,7.36l28.17,72.31L75.32,2.1l28.17,77.56L133.41,7.36h17.73l-48.35,115.05-27.82-76.65-29.01,76.72L0,7.36h17.73Z"/>
      <path class="cls-1" d="m180.92,49.68h46.67V7.36h16.33v108.19h-16.33v-50.52h-46.67v50.52h-16.33V7.36h16.33v42.32Z"/>
      <path class="cls-1" d="m286.16,7.36v108.19h-16.33V7.36h16.33Z"/>
      <path class="cls-1" d="m342,22.7v92.84h-16.33V22.7h-24.87V7.36h66v15.35h-24.8Z"/>
      <path class="cls-1" d="m441.08,22.7h-43.37v26h42.11v15.34h-42.11v36.16h43.37v15.34h-59.7V7.36h59.7v15.35Z"/>
      <path class="cls-1" d="m506.8,115.54V0l78.9,82.54V7.36h16.33v114.77l-78.9-82.33v75.74h-16.33Z"/>
      <path class="cls-1" d="m644.27,7.36v108.19h-16.33V7.36h16.33Z"/>
      <path class="cls-1" d="m725.9,59.21h44.7v3.57c0,8.13-.96,15.32-2.87,21.58-1.87,5.79-5.02,11.21-9.46,16.26-10.04,11.31-22.82,16.96-38.33,16.96s-28.1-5.47-38.89-16.4c-10.79-10.98-16.19-24.15-16.19-39.52s5.49-29.01,16.47-39.94c10.98-10.98,24.34-16.47,40.08-16.47,8.45,0,16.35,1.73,23.68,5.18,7.01,3.46,13.9,9.06,20.67,16.82l-11.63,11.14c-8.88-11.82-19.69-17.73-32.44-17.73-11.45,0-21.04,3.95-28.8,11.84-7.75,7.75-11.63,17.47-11.63,29.15s4.32,21.98,12.96,29.78c8.08,7.24,16.84,10.86,26.28,10.86,8.03,0,15.25-2.71,21.65-8.13,6.4-5.46,9.97-12,10.72-19.62h-26.98v-15.34Z"/>
      <path class="cls-1" d="m807.46,49.68h46.67V7.36h16.33v108.19h-16.33v-50.52h-46.67v50.52h-16.33V7.36h16.33v42.32Z"/>
      <path class="cls-1" d="m926.23,22.7v92.84h-16.33V22.7h-24.87V7.36h66v15.35h-24.8Z"/>
    </g>
  </g>
</svg>