<?xml version="1.0" encoding="utf-8"?>
<!-- Generator: Adobe Illustrator 27.9.0, SVG Export Plug-In . SVG Version: 6.00 Build 0)  -->
<svg version="1.1" id="Layer_2_00000107574513859954936050000003644760019591209404_"
	 xmlns="http://www.w3.org/2000/svg" xmlns:xlink="http://www.w3.org/1999/xlink" x="0px" y="0px" viewBox="0 0 951 122.5"
	 style="enable-background:new 0 0 951 122.5;" xml:space="preserve">
<style type="text/css">
	.st0{fill:#0F1D39;}
</style>
<g>
	<path class="st0" d="M16.6,14.4L42.1,80L68.8,9.6L94.4,80l27.1-65.6h16.1L93.8,118.8L68.5,49.2l-26.3,69.6L0.5,14.4H16.6z"/>
	<path class="st0" d="M164.6,52.8H207V14.4h14.8v98.1H207V66.7h-42.3v45.8h-14.8V14.4h14.8V52.8z"/>
	<path class="st0" d="M260.1,14.4v98.1h-14.8V14.4H260.1z"/>
	<path class="st0" d="M310.8,28.3v84.2H296V28.3h-22.6V14.4h59.9v13.9H310.8z"/>
	<path class="st0" d="M400.7,28.3h-39.3v23.6h38.2v13.9h-38.2v32.8h39.3v13.9h-54.2V14.4h54.2V28.3z"/>
	<path class="st0" d="M475.1,53.5l38.2-39.2h19.8l-44.4,44.4l44.6,53.7h-19.8l-35.3-43.7l-3.1,3.1v40.6h-14.8V14.4h14.8V53.5z"/>
	<path class="st0" d="M546.6,112.5V7.7l71.6,74.9V14.4h14.8v104.1l-71.6-74.7v68.7H546.6z"/>
	<path class="st0" d="M671.3,14.4v98.1h-14.8V14.4H671.3z"/>
	<path class="st0" d="M745.3,61.4h40.6v3.2c0,7.4-0.9,13.9-2.6,19.6c-1.7,5.3-4.6,10.2-8.6,14.7c-9.1,10.3-20.7,15.4-34.8,15.4
		c-13.7,0-25.5-5-35.3-14.9c-9.8-10-14.7-21.9-14.7-35.9c0-14.2,5-26.3,14.9-36.2c10-10,22.1-14.9,36.4-14.9
		c7.7,0,14.8,1.6,21.5,4.7c6.4,3.1,12.6,8.2,18.8,15.3l-10.6,10.1c-8.1-10.7-17.9-16.1-29.4-16.1c-10.4,0-19.1,3.6-26.1,10.7
		c-7,7-10.6,15.8-10.6,26.4c0,10.9,3.9,19.9,11.8,27c7.3,6.6,15.3,9.9,23.8,9.9c7.3,0,13.8-2.5,19.6-7.4c5.8-5,9-10.9,9.7-17.8
		h-24.5V61.4z"/>
	<path class="st0" d="M819.3,52.8h42.3V14.4h14.8v98.1h-14.8V66.7h-42.3v45.8h-14.8V14.4h14.8V52.8z"/>
	<path class="st0" d="M927.1,28.3v84.2h-14.8V28.3h-22.6V14.4h59.9v13.9H927.1z"/>
</g>
</svg>
